<mxfile host="www.draw.io" modified="2020-01-31T06:55:48.056Z" agent="Mozilla/5.0 (Windows NT 10.0; Win64; x64) AppleWebKit/537.36 (KHTML, like Gecko) Chrome/79.0.3945.117 Safari/537.36" etag="F-vnyHLiDCo95fBS9mza" version="12.6.2" type="github">
  <diagram id="D4e0tmcWrntbx1AEdv8U" name="Page-1">
    <mxGraphModel dx="868" dy="482" grid="1" gridSize="10" guides="1" tooltips="1" connect="1" arrows="1" fold="1" page="1" pageScale="1" pageWidth="850" pageHeight="1100" math="0" shadow="0">
      <root>
        <mxCell id="0"/>
        <mxCell id="1" parent="0"/>
        <mxCell id="LT_QgwZIbn-SD-Yoqie6-1" value="" style="verticalLabelPosition=bottom;verticalAlign=top;html=1;shadow=0;dashed=0;strokeWidth=1;shape=mxgraph.android.phone2;strokeColor=#c0c0c0;fillColor=#000000;" vertex="1" parent="1">
          <mxGeometry x="20" y="30" width="200" height="380" as="geometry"/>
        </mxCell>
        <mxCell id="LT_QgwZIbn-SD-Yoqie6-2" value="" style="verticalLabelPosition=bottom;verticalAlign=top;html=1;shadow=0;dashed=0;strokeWidth=2;shape=mxgraph.android.navigation_bar_1;fillColor=#1A1A1A;strokeColor=#999999;" vertex="1" parent="1">
          <mxGeometry x="27.5" y="350" width="185" height="30" as="geometry"/>
        </mxCell>
        <mxCell id="LT_QgwZIbn-SD-Yoqie6-71" value="" style="rounded=0;whiteSpace=wrap;html=1;" vertex="1" parent="1">
          <mxGeometry x="27.5" y="300" width="182.5" height="50" as="geometry"/>
        </mxCell>
        <mxCell id="LT_QgwZIbn-SD-Yoqie6-67" value="" style="pointerEvents=1;shadow=0;dashed=0;html=1;strokeColor=none;labelPosition=center;verticalLabelPosition=bottom;verticalAlign=top;align=center;fillColor=#666666;shape=mxgraph.mscae.intune.dashboard" vertex="1" parent="1">
          <mxGeometry x="152.5" y="305" width="27.5" height="25" as="geometry"/>
        </mxCell>
        <mxCell id="LT_QgwZIbn-SD-Yoqie6-74" value="&lt;font color=&quot;#666666&quot;&gt;Dashboard&lt;/font&gt;" style="text;html=1;align=center;verticalAlign=middle;resizable=0;points=[];autosize=1;" vertex="1" parent="1">
          <mxGeometry x="131.25" y="330" width="70" height="20" as="geometry"/>
        </mxCell>
        <mxCell id="LT_QgwZIbn-SD-Yoqie6-68" value="" style="outlineConnect=0;fontColor=#232F3E;gradientColor=none;fillColor=#009999;strokeColor=none;dashed=0;verticalLabelPosition=bottom;verticalAlign=top;align=center;html=1;fontSize=12;fontStyle=0;aspect=fixed;pointerEvents=1;shape=mxgraph.aws4.container_registry_image;" vertex="1" parent="1">
          <mxGeometry x="60" y="305" width="25" height="25" as="geometry"/>
        </mxCell>
        <mxCell id="LT_QgwZIbn-SD-Yoqie6-76" value="&lt;font color=&quot;#009999&quot;&gt;Image&lt;/font&gt;" style="text;html=1;align=center;verticalAlign=middle;resizable=0;points=[];autosize=1;" vertex="1" parent="1">
          <mxGeometry x="50" y="330" width="50" height="20" as="geometry"/>
        </mxCell>
        <mxCell id="LT_QgwZIbn-SD-Yoqie6-77" value="" style="whiteSpace=wrap;html=1;aspect=fixed;fillColor=#000000;" vertex="1" parent="1">
          <mxGeometry x="28.75" y="118.75" width="181.25" height="181.25" as="geometry"/>
        </mxCell>
        <mxCell id="LT_QgwZIbn-SD-Yoqie6-78" value="" style="rounded=0;whiteSpace=wrap;html=1;fillColor=#009999;" vertex="1" parent="1">
          <mxGeometry x="31.25" y="65" width="182.5" height="30" as="geometry"/>
        </mxCell>
        <mxCell id="LT_QgwZIbn-SD-Yoqie6-80" value="&lt;font color=&quot;#ffffff&quot;&gt;Image&lt;/font&gt;" style="text;html=1;align=center;verticalAlign=middle;resizable=0;points=[];autosize=1;" vertex="1" parent="1">
          <mxGeometry x="28.75" y="65" width="50" height="20" as="geometry"/>
        </mxCell>
        <mxCell id="LT_QgwZIbn-SD-Yoqie6-69" value="" style="ellipse;whiteSpace=wrap;html=1;aspect=fixed;strokeColor=#FF3333;fillColor=#FF3333;" vertex="1" parent="1">
          <mxGeometry x="161.25" y="250" width="40" height="40" as="geometry"/>
        </mxCell>
        <mxCell id="LT_QgwZIbn-SD-Yoqie6-66" value="" style="shape=image;html=1;verticalAlign=top;verticalLabelPosition=bottom;labelBackgroundColor=#ffffff;imageAspect=0;aspect=fixed;image=https://cdn3.iconfinder.com/data/icons/google-material-design-icons/48/ic_today_48px-128.png;imageBackground=none;imageBorder=none;" vertex="1" parent="1">
          <mxGeometry x="168.75" y="257.5" width="25" height="25" as="geometry"/>
        </mxCell>
        <mxCell id="LT_QgwZIbn-SD-Yoqie6-62" value="" style="shape=image;html=1;verticalAlign=top;verticalLabelPosition=bottom;labelBackgroundColor=#ffffff;imageAspect=0;aspect=fixed;image=https://cdn2.iconfinder.com/data/icons/space-82/64/uranus-128.png;imageBackground=none;imageBorder=none;" vertex="1" parent="1">
          <mxGeometry x="31.25" y="110" width="130" height="130" as="geometry"/>
        </mxCell>
        <mxCell id="LT_QgwZIbn-SD-Yoqie6-64" value="" style="shape=image;html=1;verticalAlign=top;verticalLabelPosition=bottom;labelBackgroundColor=#ffffff;imageAspect=0;aspect=fixed;image=https://cdn2.iconfinder.com/data/icons/space-82/64/stars-128.png" vertex="1" parent="1">
          <mxGeometry x="141.25" y="118.75" width="61.25" height="61.25" as="geometry"/>
        </mxCell>
        <mxCell id="LT_QgwZIbn-SD-Yoqie6-63" value="" style="shape=image;html=1;verticalAlign=top;verticalLabelPosition=bottom;labelBackgroundColor=#ffffff;imageAspect=0;aspect=fixed;image=https://cdn2.iconfinder.com/data/icons/space-82/64/stars-128.png" vertex="1" parent="1">
          <mxGeometry x="28.75" y="204.5" width="78" height="78" as="geometry"/>
        </mxCell>
        <mxCell id="LT_QgwZIbn-SD-Yoqie6-70" value="&lt;p style=&quot;line-height: 200% ; font-size: 10px&quot;&gt;NASA APOD&lt;/p&gt;" style="whiteSpace=wrap;html=1;shape=mxgraph.basic.cloud_callout" vertex="1" parent="1">
          <mxGeometry x="230" y="85" width="90" height="65" as="geometry"/>
        </mxCell>
        <mxCell id="LT_QgwZIbn-SD-Yoqie6-82" value="" style="verticalLabelPosition=bottom;verticalAlign=top;html=1;shadow=0;dashed=0;strokeWidth=2;shape=mxgraph.android.navigation_bar_1;fillColor=#1A1A1A;strokeColor=#999999;" vertex="1" parent="1">
          <mxGeometry x="470" y="355" width="185" height="30" as="geometry"/>
        </mxCell>
        <mxCell id="LT_QgwZIbn-SD-Yoqie6-83" value="" style="rounded=0;whiteSpace=wrap;html=1;" vertex="1" parent="1">
          <mxGeometry x="470" y="305" width="182.5" height="50" as="geometry"/>
        </mxCell>
        <mxCell id="LT_QgwZIbn-SD-Yoqie6-84" value="" style="pointerEvents=1;shadow=0;dashed=0;html=1;strokeColor=none;labelPosition=center;verticalLabelPosition=bottom;verticalAlign=top;align=center;fillColor=#666666;shape=mxgraph.mscae.intune.dashboard" vertex="1" parent="1">
          <mxGeometry x="595" y="310" width="27.5" height="25" as="geometry"/>
        </mxCell>
        <mxCell id="LT_QgwZIbn-SD-Yoqie6-85" value="&lt;font color=&quot;#666666&quot;&gt;Dashboard&lt;/font&gt;" style="text;html=1;align=center;verticalAlign=middle;resizable=0;points=[];autosize=1;" vertex="1" parent="1">
          <mxGeometry x="573.75" y="335" width="70" height="20" as="geometry"/>
        </mxCell>
        <mxCell id="LT_QgwZIbn-SD-Yoqie6-86" value="" style="outlineConnect=0;fontColor=#232F3E;gradientColor=none;fillColor=#009999;strokeColor=none;dashed=0;verticalLabelPosition=bottom;verticalAlign=top;align=center;html=1;fontSize=12;fontStyle=0;aspect=fixed;pointerEvents=1;shape=mxgraph.aws4.container_registry_image;" vertex="1" parent="1">
          <mxGeometry x="502.5" y="310" width="25" height="25" as="geometry"/>
        </mxCell>
        <mxCell id="LT_QgwZIbn-SD-Yoqie6-87" value="&lt;font color=&quot;#009999&quot;&gt;Image&lt;/font&gt;" style="text;html=1;align=center;verticalAlign=middle;resizable=0;points=[];autosize=1;" vertex="1" parent="1">
          <mxGeometry x="492.5" y="335" width="50" height="20" as="geometry"/>
        </mxCell>
        <mxCell id="LT_QgwZIbn-SD-Yoqie6-88" value="" style="whiteSpace=wrap;html=1;aspect=fixed;fillColor=#000000;" vertex="1" parent="1">
          <mxGeometry x="471.25" y="123.75" width="181.25" height="181.25" as="geometry"/>
        </mxCell>
        <mxCell id="LT_QgwZIbn-SD-Yoqie6-89" value="" style="rounded=0;whiteSpace=wrap;html=1;fillColor=#009999;" vertex="1" parent="1">
          <mxGeometry x="470" y="65" width="182.5" height="30" as="geometry"/>
        </mxCell>
        <mxCell id="LT_QgwZIbn-SD-Yoqie6-90" value="&lt;font color=&quot;#ffffff&quot;&gt;Image&lt;/font&gt;" style="text;html=1;align=center;verticalAlign=middle;resizable=0;points=[];autosize=1;" vertex="1" parent="1">
          <mxGeometry x="471.25" y="70" width="50" height="20" as="geometry"/>
        </mxCell>
        <mxCell id="LT_QgwZIbn-SD-Yoqie6-91" value="" style="ellipse;whiteSpace=wrap;html=1;aspect=fixed;strokeColor=#FF3333;fillColor=#FF3333;" vertex="1" parent="1">
          <mxGeometry x="603.75" y="255" width="40" height="40" as="geometry"/>
        </mxCell>
        <mxCell id="LT_QgwZIbn-SD-Yoqie6-92" value="" style="shape=image;html=1;verticalAlign=top;verticalLabelPosition=bottom;labelBackgroundColor=#ffffff;imageAspect=0;aspect=fixed;image=https://cdn3.iconfinder.com/data/icons/google-material-design-icons/48/ic_today_48px-128.png;imageBackground=none;imageBorder=none;" vertex="1" parent="1">
          <mxGeometry x="611.25" y="262.5" width="25" height="25" as="geometry"/>
        </mxCell>
        <mxCell id="LT_QgwZIbn-SD-Yoqie6-93" value="" style="shape=image;html=1;verticalAlign=top;verticalLabelPosition=bottom;labelBackgroundColor=#ffffff;imageAspect=0;aspect=fixed;image=https://cdn2.iconfinder.com/data/icons/space-82/64/uranus-128.png;imageBackground=none;imageBorder=none;" vertex="1" parent="1">
          <mxGeometry x="473.75" y="115" width="130" height="130" as="geometry"/>
        </mxCell>
        <mxCell id="LT_QgwZIbn-SD-Yoqie6-94" value="" style="shape=image;html=1;verticalAlign=top;verticalLabelPosition=bottom;labelBackgroundColor=#ffffff;imageAspect=0;aspect=fixed;image=https://cdn2.iconfinder.com/data/icons/space-82/64/stars-128.png" vertex="1" parent="1">
          <mxGeometry x="583.75" y="123.75" width="61.25" height="61.25" as="geometry"/>
        </mxCell>
        <mxCell id="LT_QgwZIbn-SD-Yoqie6-95" value="" style="shape=image;html=1;verticalAlign=top;verticalLabelPosition=bottom;labelBackgroundColor=#ffffff;imageAspect=0;aspect=fixed;image=https://cdn2.iconfinder.com/data/icons/space-82/64/stars-128.png" vertex="1" parent="1">
          <mxGeometry x="471.25" y="209.5" width="78" height="78" as="geometry"/>
        </mxCell>
        <mxCell id="LT_QgwZIbn-SD-Yoqie6-96" value="" style="verticalLabelPosition=bottom;verticalAlign=top;html=1;shadow=0;dashed=0;strokeWidth=1;shape=mxgraph.android.phone2;strokeColor=#c0c0c0;fillColor=#000000;" vertex="1" parent="1">
          <mxGeometry x="461.25" y="28" width="200" height="390" as="geometry"/>
        </mxCell>
        <mxCell id="LT_QgwZIbn-SD-Yoqie6-97" value="" style="html=1;shadow=0;dashed=0;align=center;verticalAlign=middle;shape=mxgraph.arrows2.arrow;dy=0.6;dx=40;notch=15;strokeColor=#000000;fillColor=#ffffff;" vertex="1" parent="1">
          <mxGeometry x="201.25" y="245" width="248.75" height="50" as="geometry"/>
        </mxCell>
        <mxCell id="LT_QgwZIbn-SD-Yoqie6-9" value="" style="strokeWidth=1;shadow=0;dashed=0;align=center;html=1;shape=mxgraph.mockup.forms.rrect;rSize=5;strokeColor=#999999;fillColor=#ffffff;" vertex="1" parent="1">
          <mxGeometry x="480" y="110" width="160" height="160" as="geometry"/>
        </mxCell>
        <mxCell id="LT_QgwZIbn-SD-Yoqie6-10" value="October 2014" style="strokeWidth=1;shadow=0;dashed=0;align=center;html=1;shape=mxgraph.mockup.forms.anchor;fontColor=#999999;" vertex="1" parent="LT_QgwZIbn-SD-Yoqie6-9">
          <mxGeometry x="30" y="7.314285714285715" width="100" height="18.28571428571429" as="geometry"/>
        </mxCell>
        <mxCell id="LT_QgwZIbn-SD-Yoqie6-11" value="&lt;" style="strokeWidth=1;shadow=0;dashed=0;align=center;html=1;shape=mxgraph.mockup.forms.rrect;rSize=4;strokeColor=#999999;fontColor=#008cff;fontSize=19;fontStyle=1;" vertex="1" parent="LT_QgwZIbn-SD-Yoqie6-9">
          <mxGeometry x="8" y="7.314285714285715" width="25" height="18.28571428571429" as="geometry"/>
        </mxCell>
        <mxCell id="LT_QgwZIbn-SD-Yoqie6-12" value="&gt;" style="strokeWidth=1;shadow=0;dashed=0;align=center;html=1;shape=mxgraph.mockup.forms.rrect;rSize=4;strokeColor=#999999;fontColor=#008cff;fontSize=19;fontStyle=1;" vertex="1" parent="LT_QgwZIbn-SD-Yoqie6-9">
          <mxGeometry x="127" y="7.314285714285715" width="25" height="18.28571428571429" as="geometry"/>
        </mxCell>
        <mxCell id="LT_QgwZIbn-SD-Yoqie6-13" value="Mo" style="strokeWidth=1;shadow=0;dashed=0;align=center;html=1;shape=mxgraph.mockup.forms.anchor;fontColor=#999999;" vertex="1" parent="LT_QgwZIbn-SD-Yoqie6-9">
          <mxGeometry x="10" y="25.6" width="20" height="18.28571428571429" as="geometry"/>
        </mxCell>
        <mxCell id="LT_QgwZIbn-SD-Yoqie6-14" value="Tu" style="strokeWidth=1;shadow=0;dashed=0;align=center;html=1;shape=mxgraph.mockup.forms.anchor;fontColor=#999999;" vertex="1" parent="LT_QgwZIbn-SD-Yoqie6-9">
          <mxGeometry x="30" y="25.6" width="20" height="18.28571428571429" as="geometry"/>
        </mxCell>
        <mxCell id="LT_QgwZIbn-SD-Yoqie6-15" value="We" style="strokeWidth=1;shadow=0;dashed=0;align=center;html=1;shape=mxgraph.mockup.forms.anchor;fontColor=#999999;" vertex="1" parent="LT_QgwZIbn-SD-Yoqie6-9">
          <mxGeometry x="50" y="25.6" width="20" height="18.28571428571429" as="geometry"/>
        </mxCell>
        <mxCell id="LT_QgwZIbn-SD-Yoqie6-16" value="Th" style="strokeWidth=1;shadow=0;dashed=0;align=center;html=1;shape=mxgraph.mockup.forms.anchor;fontColor=#999999;" vertex="1" parent="LT_QgwZIbn-SD-Yoqie6-9">
          <mxGeometry x="70" y="25.6" width="20" height="18.28571428571429" as="geometry"/>
        </mxCell>
        <mxCell id="LT_QgwZIbn-SD-Yoqie6-17" value="Fr" style="strokeWidth=1;shadow=0;dashed=0;align=center;html=1;shape=mxgraph.mockup.forms.anchor;fontColor=#999999;" vertex="1" parent="LT_QgwZIbn-SD-Yoqie6-9">
          <mxGeometry x="90" y="25.6" width="20" height="18.28571428571429" as="geometry"/>
        </mxCell>
        <mxCell id="LT_QgwZIbn-SD-Yoqie6-18" value="Sa" style="strokeWidth=1;shadow=0;dashed=0;align=center;html=1;shape=mxgraph.mockup.forms.anchor;fontColor=#999999;" vertex="1" parent="LT_QgwZIbn-SD-Yoqie6-9">
          <mxGeometry x="110" y="25.6" width="20" height="18.28571428571429" as="geometry"/>
        </mxCell>
        <mxCell id="LT_QgwZIbn-SD-Yoqie6-19" value="Su" style="strokeWidth=1;shadow=0;dashed=0;align=center;html=1;shape=mxgraph.mockup.forms.anchor;fontColor=#999999;" vertex="1" parent="LT_QgwZIbn-SD-Yoqie6-9">
          <mxGeometry x="130" y="25.6" width="20" height="18.28571428571429" as="geometry"/>
        </mxCell>
        <mxCell id="LT_QgwZIbn-SD-Yoqie6-20" value="1" style="strokeWidth=1;shadow=0;dashed=0;align=center;html=1;shape=mxgraph.mockup.forms.rrect;rSize=0;strokeColor=#999999;fontColor=#999999;" vertex="1" parent="LT_QgwZIbn-SD-Yoqie6-9">
          <mxGeometry x="10" y="43.88571428571429" width="20" height="18.28571428571429" as="geometry"/>
        </mxCell>
        <mxCell id="LT_QgwZIbn-SD-Yoqie6-21" value="2" style="strokeWidth=1;shadow=0;dashed=0;align=center;html=1;shape=mxgraph.mockup.forms.rrect;rSize=0;strokeColor=#999999;fontColor=#999999;" vertex="1" parent="LT_QgwZIbn-SD-Yoqie6-9">
          <mxGeometry x="30" y="43.88571428571429" width="20" height="18.28571428571429" as="geometry"/>
        </mxCell>
        <mxCell id="LT_QgwZIbn-SD-Yoqie6-22" value="3" style="strokeWidth=1;shadow=0;dashed=0;align=center;html=1;shape=mxgraph.mockup.forms.rrect;rSize=0;strokeColor=#999999;fontColor=#999999;" vertex="1" parent="LT_QgwZIbn-SD-Yoqie6-9">
          <mxGeometry x="50" y="43.88571428571429" width="20" height="18.28571428571429" as="geometry"/>
        </mxCell>
        <mxCell id="LT_QgwZIbn-SD-Yoqie6-23" value="4" style="strokeWidth=1;shadow=0;dashed=0;align=center;html=1;shape=mxgraph.mockup.forms.rrect;rSize=0;strokeColor=#999999;fontColor=#999999;" vertex="1" parent="LT_QgwZIbn-SD-Yoqie6-9">
          <mxGeometry x="70" y="43.88571428571429" width="20" height="18.28571428571429" as="geometry"/>
        </mxCell>
        <mxCell id="LT_QgwZIbn-SD-Yoqie6-24" value="5" style="strokeWidth=1;shadow=0;dashed=0;align=center;html=1;shape=mxgraph.mockup.forms.rrect;rSize=0;strokeColor=#999999;fontColor=#999999;" vertex="1" parent="LT_QgwZIbn-SD-Yoqie6-9">
          <mxGeometry x="90" y="43.88571428571429" width="20" height="18.28571428571429" as="geometry"/>
        </mxCell>
        <mxCell id="LT_QgwZIbn-SD-Yoqie6-25" value="6" style="strokeWidth=1;shadow=0;dashed=0;align=center;html=1;shape=mxgraph.mockup.forms.rrect;rSize=0;strokeColor=#999999;fontColor=#999999;" vertex="1" parent="LT_QgwZIbn-SD-Yoqie6-9">
          <mxGeometry x="110" y="43.88571428571429" width="20" height="18.28571428571429" as="geometry"/>
        </mxCell>
        <mxCell id="LT_QgwZIbn-SD-Yoqie6-26" value="7" style="strokeWidth=1;shadow=0;dashed=0;align=center;html=1;shape=mxgraph.mockup.forms.rrect;rSize=0;strokeColor=#999999;fontColor=#999999;" vertex="1" parent="LT_QgwZIbn-SD-Yoqie6-9">
          <mxGeometry x="130" y="43.88571428571429" width="20" height="18.28571428571429" as="geometry"/>
        </mxCell>
        <mxCell id="LT_QgwZIbn-SD-Yoqie6-27" value="8" style="strokeWidth=1;shadow=0;dashed=0;align=center;html=1;shape=mxgraph.mockup.forms.rrect;rSize=0;strokeColor=#999999;fontColor=#999999;" vertex="1" parent="LT_QgwZIbn-SD-Yoqie6-9">
          <mxGeometry x="10" y="62.17142857142858" width="20" height="18.28571428571429" as="geometry"/>
        </mxCell>
        <mxCell id="LT_QgwZIbn-SD-Yoqie6-28" value="9" style="strokeWidth=1;shadow=0;dashed=0;align=center;html=1;shape=mxgraph.mockup.forms.rrect;rSize=0;strokeColor=#999999;fontColor=#999999;" vertex="1" parent="LT_QgwZIbn-SD-Yoqie6-9">
          <mxGeometry x="30" y="62.17142857142858" width="20" height="18.28571428571429" as="geometry"/>
        </mxCell>
        <mxCell id="LT_QgwZIbn-SD-Yoqie6-29" value="10" style="strokeWidth=1;shadow=0;dashed=0;align=center;html=1;shape=mxgraph.mockup.forms.rrect;rSize=0;strokeColor=#999999;fontColor=#999999;" vertex="1" parent="LT_QgwZIbn-SD-Yoqie6-9">
          <mxGeometry x="50" y="62.17142857142858" width="20" height="18.28571428571429" as="geometry"/>
        </mxCell>
        <mxCell id="LT_QgwZIbn-SD-Yoqie6-30" value="11" style="strokeWidth=1;shadow=0;dashed=0;align=center;html=1;shape=mxgraph.mockup.forms.rrect;rSize=0;strokeColor=#999999;fontColor=#999999;" vertex="1" parent="LT_QgwZIbn-SD-Yoqie6-9">
          <mxGeometry x="70" y="62.17142857142858" width="20" height="18.28571428571429" as="geometry"/>
        </mxCell>
        <mxCell id="LT_QgwZIbn-SD-Yoqie6-31" value="12" style="strokeWidth=1;shadow=0;dashed=0;align=center;html=1;shape=mxgraph.mockup.forms.rrect;rSize=0;strokeColor=#999999;fontColor=#999999;" vertex="1" parent="LT_QgwZIbn-SD-Yoqie6-9">
          <mxGeometry x="90" y="62.17142857142858" width="20" height="18.28571428571429" as="geometry"/>
        </mxCell>
        <mxCell id="LT_QgwZIbn-SD-Yoqie6-32" value="13" style="strokeWidth=1;shadow=0;dashed=0;align=center;html=1;shape=mxgraph.mockup.forms.rrect;rSize=0;strokeColor=#999999;fontColor=#999999;" vertex="1" parent="LT_QgwZIbn-SD-Yoqie6-9">
          <mxGeometry x="110" y="62.17142857142858" width="20" height="18.28571428571429" as="geometry"/>
        </mxCell>
        <mxCell id="LT_QgwZIbn-SD-Yoqie6-33" value="14" style="strokeWidth=1;shadow=0;dashed=0;align=center;html=1;shape=mxgraph.mockup.forms.rrect;rSize=0;strokeColor=#999999;fontColor=#999999;" vertex="1" parent="LT_QgwZIbn-SD-Yoqie6-9">
          <mxGeometry x="130" y="62.17142857142858" width="20" height="18.28571428571429" as="geometry"/>
        </mxCell>
        <mxCell id="LT_QgwZIbn-SD-Yoqie6-34" value="15" style="strokeWidth=1;shadow=0;dashed=0;align=center;html=1;shape=mxgraph.mockup.forms.rrect;rSize=0;strokeColor=#999999;fontColor=#999999;" vertex="1" parent="LT_QgwZIbn-SD-Yoqie6-9">
          <mxGeometry x="10" y="80.45714285714286" width="20" height="18.28571428571429" as="geometry"/>
        </mxCell>
        <mxCell id="LT_QgwZIbn-SD-Yoqie6-35" value="16" style="strokeWidth=1;shadow=0;dashed=0;align=center;html=1;shape=mxgraph.mockup.forms.rrect;rSize=0;strokeColor=#999999;fontColor=#999999;" vertex="1" parent="LT_QgwZIbn-SD-Yoqie6-9">
          <mxGeometry x="30" y="80.45714285714286" width="20" height="18.28571428571429" as="geometry"/>
        </mxCell>
        <mxCell id="LT_QgwZIbn-SD-Yoqie6-36" value="17" style="strokeWidth=1;shadow=0;dashed=0;align=center;html=1;shape=mxgraph.mockup.forms.rrect;rSize=0;strokeColor=#999999;fontColor=#999999;" vertex="1" parent="LT_QgwZIbn-SD-Yoqie6-9">
          <mxGeometry x="50" y="80.45714285714286" width="20" height="18.28571428571429" as="geometry"/>
        </mxCell>
        <mxCell id="LT_QgwZIbn-SD-Yoqie6-37" value="18" style="strokeWidth=1;shadow=0;dashed=0;align=center;html=1;shape=mxgraph.mockup.forms.rrect;rSize=0;strokeColor=#999999;fontColor=#999999;" vertex="1" parent="LT_QgwZIbn-SD-Yoqie6-9">
          <mxGeometry x="70" y="80.45714285714286" width="20" height="18.28571428571429" as="geometry"/>
        </mxCell>
        <mxCell id="LT_QgwZIbn-SD-Yoqie6-38" value="19" style="strokeWidth=1;shadow=0;dashed=0;align=center;html=1;shape=mxgraph.mockup.forms.rrect;rSize=0;strokeColor=#999999;fontColor=#999999;" vertex="1" parent="LT_QgwZIbn-SD-Yoqie6-9">
          <mxGeometry x="90" y="80.45714285714286" width="20" height="18.28571428571429" as="geometry"/>
        </mxCell>
        <mxCell id="LT_QgwZIbn-SD-Yoqie6-39" value="20" style="strokeWidth=1;shadow=0;dashed=0;align=center;html=1;shape=mxgraph.mockup.forms.rrect;rSize=0;strokeColor=#999999;fontColor=#999999;" vertex="1" parent="LT_QgwZIbn-SD-Yoqie6-9">
          <mxGeometry x="110" y="80.45714285714286" width="20" height="18.28571428571429" as="geometry"/>
        </mxCell>
        <mxCell id="LT_QgwZIbn-SD-Yoqie6-40" value="21" style="strokeWidth=1;shadow=0;dashed=0;align=center;html=1;shape=mxgraph.mockup.forms.rrect;rSize=0;strokeColor=#999999;fontColor=#999999;" vertex="1" parent="LT_QgwZIbn-SD-Yoqie6-9">
          <mxGeometry x="130" y="80.45714285714286" width="20" height="18.28571428571429" as="geometry"/>
        </mxCell>
        <mxCell id="LT_QgwZIbn-SD-Yoqie6-41" value="22" style="strokeWidth=1;shadow=0;dashed=0;align=center;html=1;shape=mxgraph.mockup.forms.rrect;rSize=0;strokeColor=#999999;fontColor=#999999;" vertex="1" parent="LT_QgwZIbn-SD-Yoqie6-9">
          <mxGeometry x="10" y="98.74285714285715" width="20" height="18.28571428571429" as="geometry"/>
        </mxCell>
        <mxCell id="LT_QgwZIbn-SD-Yoqie6-42" value="23" style="strokeWidth=1;shadow=0;dashed=0;align=center;html=1;shape=mxgraph.mockup.forms.rrect;rSize=0;strokeColor=#999999;fontColor=#999999;" vertex="1" parent="LT_QgwZIbn-SD-Yoqie6-9">
          <mxGeometry x="30" y="98.74285714285715" width="20" height="18.28571428571429" as="geometry"/>
        </mxCell>
        <mxCell id="LT_QgwZIbn-SD-Yoqie6-43" value="25" style="strokeWidth=1;shadow=0;dashed=0;align=center;html=1;shape=mxgraph.mockup.forms.rrect;rSize=0;strokeColor=#999999;fontColor=#999999;" vertex="1" parent="LT_QgwZIbn-SD-Yoqie6-9">
          <mxGeometry x="70" y="98.74285714285715" width="20" height="18.28571428571429" as="geometry"/>
        </mxCell>
        <mxCell id="LT_QgwZIbn-SD-Yoqie6-44" value="26" style="strokeWidth=1;shadow=0;dashed=0;align=center;html=1;shape=mxgraph.mockup.forms.rrect;rSize=0;strokeColor=#999999;fontColor=#999999;" vertex="1" parent="LT_QgwZIbn-SD-Yoqie6-9">
          <mxGeometry x="90" y="98.74285714285715" width="20" height="18.28571428571429" as="geometry"/>
        </mxCell>
        <mxCell id="LT_QgwZIbn-SD-Yoqie6-45" value="27" style="strokeWidth=1;shadow=0;dashed=0;align=center;html=1;shape=mxgraph.mockup.forms.rrect;rSize=0;strokeColor=#999999;fontColor=#999999;" vertex="1" parent="LT_QgwZIbn-SD-Yoqie6-9">
          <mxGeometry x="110" y="98.74285714285715" width="20" height="18.28571428571429" as="geometry"/>
        </mxCell>
        <mxCell id="LT_QgwZIbn-SD-Yoqie6-46" value="28" style="strokeWidth=1;shadow=0;dashed=0;align=center;html=1;shape=mxgraph.mockup.forms.rrect;rSize=0;strokeColor=#999999;fontColor=#999999;" vertex="1" parent="LT_QgwZIbn-SD-Yoqie6-9">
          <mxGeometry x="130" y="98.74285714285715" width="20" height="18.28571428571429" as="geometry"/>
        </mxCell>
        <mxCell id="LT_QgwZIbn-SD-Yoqie6-47" value="29" style="strokeWidth=1;shadow=0;dashed=0;align=center;html=1;shape=mxgraph.mockup.forms.rrect;rSize=0;strokeColor=#999999;fontColor=#999999;" vertex="1" parent="LT_QgwZIbn-SD-Yoqie6-9">
          <mxGeometry x="10" y="117.02857142857144" width="20" height="18.28571428571429" as="geometry"/>
        </mxCell>
        <mxCell id="LT_QgwZIbn-SD-Yoqie6-48" value="30" style="strokeWidth=1;shadow=0;dashed=0;align=center;html=1;shape=mxgraph.mockup.forms.rrect;rSize=0;strokeColor=#999999;fontColor=#999999;" vertex="1" parent="LT_QgwZIbn-SD-Yoqie6-9">
          <mxGeometry x="30" y="117.02857142857144" width="20" height="18.28571428571429" as="geometry"/>
        </mxCell>
        <mxCell id="LT_QgwZIbn-SD-Yoqie6-49" value="31" style="strokeWidth=1;shadow=0;dashed=0;align=center;html=1;shape=mxgraph.mockup.forms.rrect;rSize=0;strokeColor=#999999;fontColor=#999999;" vertex="1" parent="LT_QgwZIbn-SD-Yoqie6-9">
          <mxGeometry x="50" y="117.02857142857144" width="20" height="18.28571428571429" as="geometry"/>
        </mxCell>
        <mxCell id="LT_QgwZIbn-SD-Yoqie6-50" value="1" style="strokeWidth=1;shadow=0;dashed=0;align=center;html=1;shape=mxgraph.mockup.forms.rrect;rSize=0;strokeColor=#999999;fontColor=#999999;fillColor=#ddeeff;" vertex="1" parent="LT_QgwZIbn-SD-Yoqie6-9">
          <mxGeometry x="70" y="117.02857142857144" width="20" height="18.28571428571429" as="geometry"/>
        </mxCell>
        <mxCell id="LT_QgwZIbn-SD-Yoqie6-51" value="2" style="strokeWidth=1;shadow=0;dashed=0;align=center;html=1;shape=mxgraph.mockup.forms.rrect;rSize=0;strokeColor=#999999;fontColor=#999999;fillColor=#ddeeff;" vertex="1" parent="LT_QgwZIbn-SD-Yoqie6-9">
          <mxGeometry x="90" y="117.02857142857144" width="20" height="18.28571428571429" as="geometry"/>
        </mxCell>
        <mxCell id="LT_QgwZIbn-SD-Yoqie6-52" value="3" style="strokeWidth=1;shadow=0;dashed=0;align=center;html=1;shape=mxgraph.mockup.forms.rrect;rSize=0;strokeColor=#999999;fontColor=#999999;fillColor=#ddeeff;" vertex="1" parent="LT_QgwZIbn-SD-Yoqie6-9">
          <mxGeometry x="110" y="117.02857142857144" width="20" height="18.28571428571429" as="geometry"/>
        </mxCell>
        <mxCell id="LT_QgwZIbn-SD-Yoqie6-53" value="4" style="strokeWidth=1;shadow=0;dashed=0;align=center;html=1;shape=mxgraph.mockup.forms.rrect;rSize=0;strokeColor=#999999;fontColor=#999999;fillColor=#ddeeff;" vertex="1" parent="LT_QgwZIbn-SD-Yoqie6-9">
          <mxGeometry x="130" y="117.02857142857144" width="20" height="18.28571428571429" as="geometry"/>
        </mxCell>
        <mxCell id="LT_QgwZIbn-SD-Yoqie6-54" value="5" style="strokeWidth=1;shadow=0;dashed=0;align=center;html=1;shape=mxgraph.mockup.forms.rrect;rSize=0;strokeColor=#999999;fontColor=#999999;fillColor=#ddeeff;" vertex="1" parent="LT_QgwZIbn-SD-Yoqie6-9">
          <mxGeometry x="10" y="135.31428571428572" width="20" height="18.28571428571429" as="geometry"/>
        </mxCell>
        <mxCell id="LT_QgwZIbn-SD-Yoqie6-55" value="6" style="strokeWidth=1;shadow=0;dashed=0;align=center;html=1;shape=mxgraph.mockup.forms.rrect;rSize=0;strokeColor=#999999;fontColor=#999999;fillColor=#ddeeff;" vertex="1" parent="LT_QgwZIbn-SD-Yoqie6-9">
          <mxGeometry x="30" y="135.31428571428572" width="20" height="18.28571428571429" as="geometry"/>
        </mxCell>
        <mxCell id="LT_QgwZIbn-SD-Yoqie6-56" value="7" style="strokeWidth=1;shadow=0;dashed=0;align=center;html=1;shape=mxgraph.mockup.forms.rrect;rSize=0;strokeColor=#999999;fontColor=#999999;fillColor=#ddeeff;" vertex="1" parent="LT_QgwZIbn-SD-Yoqie6-9">
          <mxGeometry x="50" y="135.31428571428572" width="20" height="18.28571428571429" as="geometry"/>
        </mxCell>
        <mxCell id="LT_QgwZIbn-SD-Yoqie6-57" value="8" style="strokeWidth=1;shadow=0;dashed=0;align=center;html=1;shape=mxgraph.mockup.forms.rrect;rSize=0;strokeColor=#999999;fontColor=#999999;fillColor=#ddeeff;" vertex="1" parent="LT_QgwZIbn-SD-Yoqie6-9">
          <mxGeometry x="70" y="135.31428571428572" width="20" height="18.28571428571429" as="geometry"/>
        </mxCell>
        <mxCell id="LT_QgwZIbn-SD-Yoqie6-58" value="9" style="strokeWidth=1;shadow=0;dashed=0;align=center;html=1;shape=mxgraph.mockup.forms.rrect;rSize=0;strokeColor=#999999;fontColor=#999999;fillColor=#ddeeff;" vertex="1" parent="LT_QgwZIbn-SD-Yoqie6-9">
          <mxGeometry x="90" y="135.31428571428572" width="20" height="18.28571428571429" as="geometry"/>
        </mxCell>
        <mxCell id="LT_QgwZIbn-SD-Yoqie6-59" value="10" style="strokeWidth=1;shadow=0;dashed=0;align=center;html=1;shape=mxgraph.mockup.forms.rrect;rSize=0;strokeColor=#999999;fontColor=#999999;fillColor=#ddeeff;" vertex="1" parent="LT_QgwZIbn-SD-Yoqie6-9">
          <mxGeometry x="110" y="135.31428571428572" width="20" height="18.28571428571429" as="geometry"/>
        </mxCell>
        <mxCell id="LT_QgwZIbn-SD-Yoqie6-60" value="11" style="strokeWidth=1;shadow=0;dashed=0;align=center;html=1;shape=mxgraph.mockup.forms.rrect;rSize=0;strokeColor=#999999;fontColor=#999999;fillColor=#ddeeff;" vertex="1" parent="LT_QgwZIbn-SD-Yoqie6-9">
          <mxGeometry x="130" y="135.31428571428572" width="20" height="18.28571428571429" as="geometry"/>
        </mxCell>
        <mxCell id="LT_QgwZIbn-SD-Yoqie6-61" value="24" style="strokeWidth=1;shadow=0;dashed=0;align=center;html=1;shape=mxgraph.mockup.forms.rrect;rSize=0;strokeColor=#ff0000;fontColor=#ffffff;strokeWidth=2;fillColor=#008cff;" vertex="1" parent="LT_QgwZIbn-SD-Yoqie6-9">
          <mxGeometry x="50" y="98.74285714285715" width="20" height="18.28571428571429" as="geometry"/>
        </mxCell>
        <mxCell id="LT_QgwZIbn-SD-Yoqie6-98" value="" style="rounded=0;whiteSpace=wrap;html=1;strokeColor=#FFFFFF;fillColor=#ffffff;" vertex="1" parent="1">
          <mxGeometry x="480.63" y="267.5" width="161.25" height="20" as="geometry"/>
        </mxCell>
        <mxCell id="LT_QgwZIbn-SD-Yoqie6-99" value="&lt;font color=&quot;#ff3333&quot;&gt;OK&lt;/font&gt;" style="text;html=1;align=center;verticalAlign=middle;resizable=0;points=[];autosize=1;" vertex="1" parent="1">
          <mxGeometry x="603.75" y="267.5" width="30" height="20" as="geometry"/>
        </mxCell>
        <mxCell id="LT_QgwZIbn-SD-Yoqie6-100" value="&lt;font color=&quot;#ff3333&quot;&gt;CANCEL&lt;/font&gt;" style="text;html=1;align=center;verticalAlign=middle;resizable=0;points=[];autosize=1;" vertex="1" parent="1">
          <mxGeometry x="532.5" y="267.5" width="60" height="20" as="geometry"/>
        </mxCell>
        <mxCell id="LT_QgwZIbn-SD-Yoqie6-102" value="User clicks calendar to input an alternative date." style="whiteSpace=wrap;html=1;shape=mxgraph.basic.loud_callout;strokeColor=#0000FF;fillColor=#ffffff;" vertex="1" parent="1">
          <mxGeometry x="255.63" y="140" width="100" height="100" as="geometry"/>
        </mxCell>
        <mxCell id="LT_QgwZIbn-SD-Yoqie6-104" value="" style="verticalLabelPosition=bottom;verticalAlign=top;html=1;shadow=0;dashed=0;strokeWidth=2;shape=mxgraph.android.navigation_bar_1;fillColor=#1A1A1A;strokeColor=#999999;" vertex="1" parent="1">
          <mxGeometry x="26.25" y="800" width="185" height="30" as="geometry"/>
        </mxCell>
        <mxCell id="LT_QgwZIbn-SD-Yoqie6-105" value="" style="rounded=0;whiteSpace=wrap;html=1;" vertex="1" parent="1">
          <mxGeometry x="26.25" y="750" width="182.5" height="50" as="geometry"/>
        </mxCell>
        <mxCell id="LT_QgwZIbn-SD-Yoqie6-106" value="" style="pointerEvents=1;shadow=0;dashed=0;html=1;strokeColor=none;labelPosition=center;verticalLabelPosition=bottom;verticalAlign=top;align=center;fillColor=#666666;shape=mxgraph.mscae.intune.dashboard" vertex="1" parent="1">
          <mxGeometry x="151.25" y="755" width="27.5" height="25" as="geometry"/>
        </mxCell>
        <mxCell id="LT_QgwZIbn-SD-Yoqie6-107" value="&lt;font color=&quot;#666666&quot;&gt;Dashboard&lt;/font&gt;" style="text;html=1;align=center;verticalAlign=middle;resizable=0;points=[];autosize=1;" vertex="1" parent="1">
          <mxGeometry x="130" y="780" width="70" height="20" as="geometry"/>
        </mxCell>
        <mxCell id="LT_QgwZIbn-SD-Yoqie6-108" value="" style="outlineConnect=0;fontColor=#232F3E;gradientColor=none;fillColor=#009999;strokeColor=none;dashed=0;verticalLabelPosition=bottom;verticalAlign=top;align=center;html=1;fontSize=12;fontStyle=0;aspect=fixed;pointerEvents=1;shape=mxgraph.aws4.container_registry_image;" vertex="1" parent="1">
          <mxGeometry x="58.75" y="755" width="25" height="25" as="geometry"/>
        </mxCell>
        <mxCell id="LT_QgwZIbn-SD-Yoqie6-109" value="&lt;font color=&quot;#009999&quot;&gt;Image&lt;/font&gt;" style="text;html=1;align=center;verticalAlign=middle;resizable=0;points=[];autosize=1;" vertex="1" parent="1">
          <mxGeometry x="48.75" y="780" width="50" height="20" as="geometry"/>
        </mxCell>
        <mxCell id="LT_QgwZIbn-SD-Yoqie6-110" value="" style="whiteSpace=wrap;html=1;aspect=fixed;fillColor=#000000;" vertex="1" parent="1">
          <mxGeometry x="27.5" y="568.75" width="181.25" height="181.25" as="geometry"/>
        </mxCell>
        <mxCell id="LT_QgwZIbn-SD-Yoqie6-111" value="" style="rounded=0;whiteSpace=wrap;html=1;fillColor=#009999;" vertex="1" parent="1">
          <mxGeometry x="26.25" y="510" width="182.5" height="30" as="geometry"/>
        </mxCell>
        <mxCell id="LT_QgwZIbn-SD-Yoqie6-112" value="&lt;font color=&quot;#ffffff&quot;&gt;Image&lt;/font&gt;" style="text;html=1;align=center;verticalAlign=middle;resizable=0;points=[];autosize=1;" vertex="1" parent="1">
          <mxGeometry x="27.5" y="515" width="50" height="20" as="geometry"/>
        </mxCell>
        <mxCell id="LT_QgwZIbn-SD-Yoqie6-113" value="" style="ellipse;whiteSpace=wrap;html=1;aspect=fixed;strokeColor=#FF3333;fillColor=#FF3333;" vertex="1" parent="1">
          <mxGeometry x="160" y="700" width="40" height="40" as="geometry"/>
        </mxCell>
        <mxCell id="LT_QgwZIbn-SD-Yoqie6-114" value="" style="shape=image;html=1;verticalAlign=top;verticalLabelPosition=bottom;labelBackgroundColor=#ffffff;imageAspect=0;aspect=fixed;image=https://cdn3.iconfinder.com/data/icons/google-material-design-icons/48/ic_today_48px-128.png;imageBackground=none;imageBorder=none;" vertex="1" parent="1">
          <mxGeometry x="167.5" y="707.5" width="25" height="25" as="geometry"/>
        </mxCell>
        <mxCell id="LT_QgwZIbn-SD-Yoqie6-118" value="" style="shape=image;html=1;verticalAlign=top;verticalLabelPosition=bottom;labelBackgroundColor=#ffffff;imageAspect=0;aspect=fixed;image=https://cdn2.iconfinder.com/data/icons/space-82/64/galaxy-128.png;strokeColor=#0000FF;fillColor=#ffffff;" vertex="1" parent="1">
          <mxGeometry x="20" y="568.75" width="161.25" height="161.25" as="geometry"/>
        </mxCell>
        <mxCell id="LT_QgwZIbn-SD-Yoqie6-119" value="" style="shape=image;html=1;verticalAlign=top;verticalLabelPosition=bottom;labelBackgroundColor=#ffffff;imageAspect=0;aspect=fixed;image=https://cdn0.iconfinder.com/data/icons/simple-darkcon-1/92/chat-128.png;strokeColor=#0000FF;fillColor=#ffffff;" vertex="1" parent="1">
          <mxGeometry x="220" y="540" width="88" height="88" as="geometry"/>
        </mxCell>
        <mxCell id="LT_QgwZIbn-SD-Yoqie6-120" value="APOD &lt;br&gt;changes&amp;nbsp;" style="text;html=1;align=center;verticalAlign=middle;resizable=0;points=[];autosize=1;" vertex="1" parent="1">
          <mxGeometry x="234" y="560" width="60" height="30" as="geometry"/>
        </mxCell>
        <mxCell id="LT_QgwZIbn-SD-Yoqie6-127" value="" style="shape=singleArrow;direction=north;whiteSpace=wrap;html=1;strokeColor=#0000FF;fillColor=#ffffff;rotation=-120;" vertex="1" parent="1">
          <mxGeometry x="320" y="355" width="60" height="195" as="geometry"/>
        </mxCell>
        <mxCell id="LT_QgwZIbn-SD-Yoqie6-128" value="" style="verticalLabelPosition=bottom;verticalAlign=top;html=1;shadow=0;dashed=0;strokeWidth=1;shape=mxgraph.android.phone2;strokeColor=#c0c0c0;fillColor=#000000;" vertex="1" parent="1">
          <mxGeometry x="18.13" y="480" width="191.87" height="380" as="geometry"/>
        </mxCell>
      </root>
    </mxGraphModel>
  </diagram>
</mxfile>
